<mxfile host="65bd71144e">
    <diagram id="01_xcEH4UmA5kcshdU0a" name="Page-1">
        <mxGraphModel dx="1907" dy="959" grid="1" gridSize="10" guides="1" tooltips="1" connect="1" arrows="1" fold="1" page="1" pageScale="1" pageWidth="850" pageHeight="1100" math="0" shadow="0">
            <root>
                <mxCell id="0"/>
                <mxCell id="1" parent="0"/>
                <mxCell id="115" value="" style="rounded=0;whiteSpace=wrap;html=1;fontSize=17;fillColor=#FFFFFF;" vertex="1" parent="1">
                    <mxGeometry x="-200" y="360" width="990" height="520" as="geometry"/>
                </mxCell>
                <mxCell id="77" value="" style="rounded=0;whiteSpace=wrap;html=1;strokeColor=#000000;fontColor=default;fillColor=none;" vertex="1" parent="1">
                    <mxGeometry x="160" y="440" width="40" height="400" as="geometry"/>
                </mxCell>
                <mxCell id="78" value="1" style="whiteSpace=wrap;html=1;aspect=fixed;strokeColor=#000000;fontColor=#000000;fillColor=none;" vertex="1" parent="1">
                    <mxGeometry x="160" y="440" width="40" height="40" as="geometry"/>
                </mxCell>
                <mxCell id="79" value="2" style="whiteSpace=wrap;html=1;aspect=fixed;strokeColor=#000000;fontColor=#000000;fillColor=none;" vertex="1" parent="1">
                    <mxGeometry x="160" y="480" width="40" height="40" as="geometry"/>
                </mxCell>
                <mxCell id="80" value="3" style="whiteSpace=wrap;html=1;aspect=fixed;strokeColor=#000000;fontColor=#000000;fillColor=none;" vertex="1" parent="1">
                    <mxGeometry x="160" y="520" width="40" height="40" as="geometry"/>
                </mxCell>
                <mxCell id="81" value="4" style="whiteSpace=wrap;html=1;aspect=fixed;strokeColor=#000000;fontColor=#000000;fillColor=none;" vertex="1" parent="1">
                    <mxGeometry x="160" y="560" width="40" height="40" as="geometry"/>
                </mxCell>
                <mxCell id="82" value="5" style="whiteSpace=wrap;html=1;aspect=fixed;strokeColor=#000000;fontColor=#000000;fillColor=none;" vertex="1" parent="1">
                    <mxGeometry x="160" y="600" width="40" height="40" as="geometry"/>
                </mxCell>
                <mxCell id="83" value="6" style="whiteSpace=wrap;html=1;aspect=fixed;strokeColor=#000000;fontColor=#000000;fillColor=none;" vertex="1" parent="1">
                    <mxGeometry x="160" y="640" width="40" height="40" as="geometry"/>
                </mxCell>
                <mxCell id="84" value="8" style="whiteSpace=wrap;html=1;aspect=fixed;strokeColor=#000000;fontColor=#000000;fillColor=none;" vertex="1" parent="1">
                    <mxGeometry x="160" y="720" width="40" height="40" as="geometry"/>
                </mxCell>
                <mxCell id="85" value="7" style="whiteSpace=wrap;html=1;aspect=fixed;strokeColor=#000000;fontColor=#000000;fillColor=none;" vertex="1" parent="1">
                    <mxGeometry x="160" y="680" width="40" height="40" as="geometry"/>
                </mxCell>
                <mxCell id="86" value="9" style="whiteSpace=wrap;html=1;aspect=fixed;strokeColor=#000000;fontColor=#000000;fillColor=none;" vertex="1" parent="1">
                    <mxGeometry x="160" y="760" width="40" height="40" as="geometry"/>
                </mxCell>
                <mxCell id="87" value="10" style="whiteSpace=wrap;html=1;aspect=fixed;strokeColor=#000000;fontColor=#000000;fillColor=none;" vertex="1" parent="1">
                    <mxGeometry x="160" y="800" width="40" height="40" as="geometry"/>
                </mxCell>
                <mxCell id="88" value="&lt;span style=&quot;font-family: Consolas, &amp;quot;Courier New&amp;quot;, monospace; font-size: 14px; font-style: normal; font-variant-ligatures: normal; font-variant-caps: normal; font-weight: 400; letter-spacing: normal; orphans: 2; text-indent: 0px; text-transform: none; widows: 2; word-spacing: 0px; -webkit-text-stroke-width: 0px; text-decoration-thickness: initial; text-decoration-style: initial; text-decoration-color: initial; float: none; display: inline !important;&quot;&gt;Verdaderamente el tercer entregable es una actividad relativamente guiada con esto,&lt;/span&gt;" style="text;whiteSpace=wrap;html=1;align=left;verticalAlign=middle;strokeColor=#000000;fontColor=default;fillColor=none;" vertex="1" parent="1">
                    <mxGeometry x="320" y="440" width="400" height="40" as="geometry"/>
                </mxCell>
                <mxCell id="91" value="&lt;span style=&quot;font-family: Consolas, &amp;quot;Courier New&amp;quot;, monospace; font-size: 14px; font-style: normal; font-variant-ligatures: normal; font-variant-caps: normal; font-weight: 400; letter-spacing: normal; orphans: 2; text-align: left; text-indent: 0px; text-transform: none; widows: 2; word-spacing: 0px; -webkit-text-stroke-width: 0px; text-decoration-thickness: initial; text-decoration-style: initial; text-decoration-color: initial; float: none; display: inline !important;&quot;&gt;&lt;font color=&quot;#000000&quot;&gt;Inicio: 7.8&lt;br&gt;Fin: 14.8&lt;/font&gt;&lt;/span&gt;" style="text;whiteSpace=wrap;html=1;verticalAlign=middle;strokeColor=#000000;fontColor=default;fillColor=none;" vertex="1" parent="1">
                    <mxGeometry x="210" y="440" width="110" height="40" as="geometry"/>
                </mxCell>
                <mxCell id="92" value="&lt;span style=&quot;font-family: Consolas, &amp;quot;Courier New&amp;quot;, monospace; font-size: 14px; font-style: normal; font-variant-ligatures: normal; font-variant-caps: normal; font-weight: 400; letter-spacing: normal; orphans: 2; text-align: start; text-indent: 0px; text-transform: none; widows: 2; word-spacing: 0px; -webkit-text-stroke-width: 0px; text-decoration-thickness: initial; text-decoration-style: initial; text-decoration-color: initial; float: none; display: inline !important;&quot;&gt;que es lo que vamos a buscar, ver ese impacto que tenemos sobre las redes recurrentes en la&lt;/span&gt;" style="text;whiteSpace=wrap;html=1;verticalAlign=middle;strokeColor=#000000;fontColor=default;fillColor=none;" vertex="1" parent="1">
                    <mxGeometry x="320" y="480" width="400" height="40" as="geometry"/>
                </mxCell>
                <mxCell id="93" value="&lt;span style=&quot;font-family: Consolas, &amp;quot;Courier New&amp;quot;, monospace; font-size: 14px; font-style: normal; font-variant-ligatures: normal; font-variant-caps: normal; font-weight: 400; letter-spacing: normal; orphans: 2; text-align: start; text-indent: 0px; text-transform: none; widows: 2; word-spacing: 0px; -webkit-text-stroke-width: 0px; text-decoration-thickness: initial; text-decoration-style: initial; text-decoration-color: initial; float: none; display: inline !important;&quot;&gt;Inicio: 14.8&lt;br&gt;Fin: 20.96&lt;/span&gt;" style="text;whiteSpace=wrap;html=1;verticalAlign=middle;strokeColor=#000000;fontColor=#000000;fillColor=none;labelBackgroundColor=none;" vertex="1" parent="1">
                    <mxGeometry x="210" y="480" width="110" height="40" as="geometry"/>
                </mxCell>
                <mxCell id="94" value="&lt;span style=&quot;font-family: Consolas, &amp;quot;Courier New&amp;quot;, monospace; font-size: 14px; font-style: normal; font-variant-ligatures: normal; font-variant-caps: normal; font-weight: 400; letter-spacing: normal; orphans: 2; text-align: start; text-indent: 0px; text-transform: none; widows: 2; word-spacing: 0px; -webkit-text-stroke-width: 0px; text-decoration-thickness: initial; text-decoration-style: initial; text-decoration-color: initial;&quot;&gt;predicción de una serie temporal. Los pasos que vamos a tener que ir haciendo, pues después de&lt;/span&gt;&lt;span style=&quot;font-family: Consolas, &amp;quot;Courier New&amp;quot;, monospace; font-size: 14px; font-style: normal; font-variant-ligatures: normal; font-variant-caps: normal; font-weight: 400; letter-spacing: normal; orphans: 2; text-align: start; text-indent: 0px; text-transform: none; widows: 2; word-spacing: 0px; -webkit-text-stroke-width: 0px; text-decoration-thickness: initial; text-decoration-style: initial; text-decoration-color: initial;&quot;&gt;&lt;br&gt;&lt;/span&gt;" style="text;whiteSpace=wrap;html=1;verticalAlign=middle;strokeColor=#000000;fontColor=default;fillColor=none;" vertex="1" parent="1">
                    <mxGeometry x="320" y="520" width="400" height="40" as="geometry"/>
                </mxCell>
                <mxCell id="95" value="&lt;span style=&quot;font-family: Consolas, &amp;quot;Courier New&amp;quot;, monospace; font-size: 14px; font-style: normal; font-variant-ligatures: normal; font-variant-caps: normal; font-weight: 400; letter-spacing: normal; orphans: 2; text-align: start; text-indent: 0px; text-transform: none; widows: 2; word-spacing: 0px; -webkit-text-stroke-width: 0px; text-decoration-thickness: initial; text-decoration-style: initial; text-decoration-color: initial; float: none; display: inline !important;&quot;&gt;Inicio: 20.96&lt;br&gt;Fin: 29.32&lt;/span&gt;" style="text;whiteSpace=wrap;html=1;strokeColor=#000000;fontColor=#000000;fillColor=none;verticalAlign=middle;" vertex="1" parent="1">
                    <mxGeometry x="210" y="520" width="110" height="40" as="geometry"/>
                </mxCell>
                <mxCell id="96" value="&lt;span style=&quot;font-family: Consolas, &amp;quot;Courier New&amp;quot;, monospace; font-size: 14px; font-style: normal; font-variant-ligatures: normal; font-variant-caps: normal; font-weight: 400; letter-spacing: normal; orphans: 2; text-align: start; text-indent: 0px; text-transform: none; widows: 2; word-spacing: 0px; -webkit-text-stroke-width: 0px; text-decoration-thickness: initial; text-decoration-style: initial; text-decoration-color: initial; float: none; display: inline !important;&quot;&gt;Inicio: 29.32&lt;br&gt;Fin: 36.04&lt;/span&gt;" style="text;whiteSpace=wrap;html=1;strokeColor=#000000;fontColor=#000000;fillColor=none;verticalAlign=middle;" vertex="1" parent="1">
                    <mxGeometry x="210" y="560" width="110" height="40" as="geometry"/>
                </mxCell>
                <mxCell id="97" value="&lt;span style=&quot;font-family: Consolas, &amp;quot;Courier New&amp;quot;, monospace; font-size: 14px; font-style: normal; font-variant-ligatures: normal; font-variant-caps: normal; font-weight: 400; letter-spacing: normal; orphans: 2; text-align: start; text-indent: 0px; text-transform: none; widows: 2; word-spacing: 0px; -webkit-text-stroke-width: 0px; text-decoration-thickness: initial; text-decoration-style: initial; text-decoration-color: initial; float: none; display: inline !important;&quot;&gt;Inicio: 36.04&lt;br&gt;Fin: 43.08&lt;/span&gt;" style="text;whiteSpace=wrap;html=1;strokeColor=#000000;fontColor=#000000;fillColor=none;verticalAlign=middle;" vertex="1" parent="1">
                    <mxGeometry x="210" y="600" width="110" height="40" as="geometry"/>
                </mxCell>
                <mxCell id="100" value="&lt;span style=&quot;font-family: Consolas, &amp;quot;Courier New&amp;quot;, monospace; font-size: 14px; font-style: normal; font-variant-ligatures: normal; font-variant-caps: normal; font-weight: 400; letter-spacing: normal; orphans: 2; text-align: start; text-indent: 0px; text-transform: none; widows: 2; word-spacing: 0px; -webkit-text-stroke-width: 0px; text-decoration-thickness: initial; text-decoration-style: initial; text-decoration-color: initial; float: none; display: inline !important;&quot;&gt;Inicio: 55.56&lt;br&gt;Fin: 64.36&lt;/span&gt;" style="text;whiteSpace=wrap;html=1;verticalAlign=middle;strokeColor=#000000;fontColor=#000000;fillColor=none;labelBackgroundColor=none;" vertex="1" parent="1">
                    <mxGeometry x="210" y="720" width="110" height="40" as="geometry"/>
                </mxCell>
                <mxCell id="101" value="&lt;span style=&quot;font-family: Consolas, &amp;quot;Courier New&amp;quot;, monospace; font-size: 14px; font-style: normal; font-variant-ligatures: normal; font-variant-caps: normal; font-weight: 400; letter-spacing: normal; orphans: 2; text-align: start; text-indent: 0px; text-transform: none; widows: 2; word-spacing: 0px; -webkit-text-stroke-width: 0px; text-decoration-thickness: initial; text-decoration-style: initial; text-decoration-color: initial; float: none; display: inline !important;&quot;&gt;Inicio: 64.36&lt;br&gt;Fin: 70.08&lt;/span&gt;" style="text;whiteSpace=wrap;html=1;verticalAlign=middle;strokeColor=#000000;fontColor=#000000;fillColor=none;labelBackgroundColor=none;" vertex="1" parent="1">
                    <mxGeometry x="210" y="760" width="110" height="40" as="geometry"/>
                </mxCell>
                <mxCell id="102" value="&lt;span style=&quot;font-family: Consolas, &amp;quot;Courier New&amp;quot;, monospace; font-size: 14px; font-style: normal; font-variant-ligatures: normal; font-variant-caps: normal; font-weight: 400; letter-spacing: normal; orphans: 2; text-align: start; text-indent: 0px; text-transform: none; widows: 2; word-spacing: 0px; -webkit-text-stroke-width: 0px; text-decoration-thickness: initial; text-decoration-style: initial; text-decoration-color: initial; float: none; display: inline !important;&quot;&gt;Inicio: 70.08&lt;br&gt;Fin: 75.76&lt;/span&gt;" style="text;whiteSpace=wrap;html=1;verticalAlign=middle;strokeColor=#000000;fontColor=#000000;fillColor=none;labelBackgroundColor=none;" vertex="1" parent="1">
                    <mxGeometry x="210" y="800" width="110" height="40" as="geometry"/>
                </mxCell>
                <mxCell id="107" value="&lt;span style=&quot;font-family: Consolas, &amp;quot;Courier New&amp;quot;, monospace; font-size: 14px; font-style: normal; font-variant-ligatures: normal; font-variant-caps: normal; font-weight: 400; letter-spacing: normal; orphans: 2; text-align: start; text-indent: 0px; text-transform: none; widows: 2; word-spacing: 0px; -webkit-text-stroke-width: 0px; text-decoration-thickness: initial; text-decoration-style: initial; text-decoration-color: initial; float: none; display: inline !important;&quot;&gt;predicciones. De la misma manera que estamos haciendo esta parte de la ventana de datos,&lt;/span&gt;" style="text;whiteSpace=wrap;html=1;verticalAlign=middle;strokeColor=#000000;fontColor=#000000;fillColor=none;labelBackgroundColor=none;" vertex="1" parent="1">
                    <mxGeometry x="320" y="800" width="400" height="40" as="geometry"/>
                </mxCell>
                <mxCell id="108" value="&lt;span style=&quot;font-family: Consolas, &amp;quot;Courier New&amp;quot;, monospace; font-size: 14px; font-style: normal; font-variant-ligatures: normal; font-variant-caps: normal; font-weight: 400; letter-spacing: normal; orphans: 2; text-align: start; text-indent: 0px; text-transform: none; widows: 2; word-spacing: 0px; -webkit-text-stroke-width: 0px; text-decoration-thickness: initial; text-decoration-style: initial; text-decoration-color: initial; float: none; display: inline !important;&quot;&gt;&lt;font color=&quot;#000000&quot;&gt;otra cosa de ver cómo hacer ese desplazamiento sobre los datos y luego ir estableciendo esas&lt;/font&gt;&lt;/span&gt;" style="text;whiteSpace=wrap;html=1;verticalAlign=middle;strokeColor=#000000;fontColor=default;fillColor=none;" vertex="1" parent="1">
                    <mxGeometry x="320" y="760" width="400" height="40" as="geometry"/>
                </mxCell>
                <mxCell id="109" value="&lt;span style=&quot;font-family: Consolas, &amp;quot;Courier New&amp;quot;, monospace; font-size: 14px; font-style: normal; font-variant-ligatures: normal; font-variant-caps: normal; font-weight: 400; letter-spacing: normal; orphans: 2; text-align: start; text-indent: 0px; text-transform: none; widows: 2; word-spacing: 0px; -webkit-text-stroke-width: 0px; text-decoration-thickness: initial; text-decoration-style: initial; text-decoration-color: initial; float: none; display: inline !important;&quot;&gt;La hora de trabajar con las series temporales, de hacer esa ventana de serie temporal. Esto no es&lt;/span&gt;" style="text;whiteSpace=wrap;html=1;verticalAlign=middle;strokeColor=#000000;fontColor=default;fillColor=none;" vertex="1" parent="1">
                    <mxGeometry x="320" y="720" width="400" height="40" as="geometry"/>
                </mxCell>
                <mxCell id="110" value="&lt;span style=&quot;font-family: Consolas, &amp;quot;Courier New&amp;quot;, monospace; font-size: 14px; font-style: normal; font-variant-ligatures: normal; font-variant-caps: normal; font-weight: 400; letter-spacing: normal; orphans: 2; text-align: start; text-indent: 0px; text-transform: none; widows: 2; word-spacing: 0px; -webkit-text-stroke-width: 0px; text-decoration-thickness: initial; text-decoration-style: initial; text-decoration-color: initial; float: none; display: inline !important;&quot;&gt;&lt;font color=&quot;#000000&quot;&gt;está definida. Esto si lo googleáis un poco vais a ver que es una de las estrategias más habituales.&lt;/font&gt;&lt;/span&gt;" style="text;whiteSpace=wrap;html=1;verticalAlign=middle;strokeColor=#000000;fontColor=default;fillColor=none;" vertex="1" parent="1">
                    <mxGeometry x="320" y="680" width="400" height="40" as="geometry"/>
                </mxCell>
                <mxCell id="111" value="&lt;span style=&quot;font-family: Consolas, &amp;quot;Courier New&amp;quot;, monospace; font-size: 14px; font-style: normal; font-variant-ligatures: normal; font-variant-caps: normal; font-weight: 400; letter-spacing: normal; orphans: 2; text-align: start; text-indent: 0px; text-transform: none; widows: 2; word-spacing: 0px; -webkit-text-stroke-width: 0px; text-decoration-thickness: initial; text-decoration-style: initial; text-decoration-color: initial; float: none; display: inline !important;&quot;&gt;&lt;font color=&quot;#000000&quot;&gt;vamos a tener nuestros datos de training y de test, nos vamos a valer de esta función que&lt;/font&gt;&lt;/span&gt;" style="text;whiteSpace=wrap;html=1;verticalAlign=middle;strokeColor=#000000;fontColor=default;fillColor=none;" vertex="1" parent="1">
                    <mxGeometry x="320" y="640" width="400" height="40" as="geometry"/>
                </mxCell>
                <mxCell id="112" value="&lt;span style=&quot;font-family: Consolas, &amp;quot;Courier New&amp;quot;, monospace; font-size: 14px; font-style: normal; font-variant-ligatures: normal; font-variant-caps: normal; font-weight: 400; letter-spacing: normal; orphans: 2; text-align: start; text-indent: 0px; text-transform: none; widows: 2; word-spacing: 0px; -webkit-text-stroke-width: 0px; text-decoration-thickness: initial; text-decoration-style: initial; text-decoration-color: initial; float: none; display: inline !important;&quot;&gt;&lt;font color=&quot;#000000&quot;&gt;pues de lo que tenemos que ir haciendo. En este caso de generar una serie de variables donde&lt;/font&gt;&lt;/span&gt;" style="text;whiteSpace=wrap;html=1;verticalAlign=middle;strokeColor=#000000;fontColor=default;fillColor=none;" vertex="1" parent="1">
                    <mxGeometry x="320" y="600" width="400" height="40" as="geometry"/>
                </mxCell>
                <mxCell id="113" value="&lt;span style=&quot;font-family: Consolas, &amp;quot;Courier New&amp;quot;, monospace; font-size: 14px; font-style: normal; font-variant-ligatures: normal; font-variant-caps: normal; font-weight: 400; letter-spacing: normal; orphans: 2; text-align: start; text-indent: 0px; text-transform: none; widows: 2; word-spacing: 0px; -webkit-text-stroke-width: 0px; text-decoration-thickness: initial; text-decoration-style: initial; text-decoration-color: initial; float: none; display: inline !important;&quot;&gt;&lt;font color=&quot;#000000&quot;&gt;tener importado nuestra información, nuestros datos y demás, nos vamos a ir valiendo un poco&lt;/font&gt;&lt;/span&gt;" style="text;whiteSpace=wrap;html=1;verticalAlign=middle;strokeColor=#000000;fontColor=default;fillColor=none;" vertex="1" parent="1">
                    <mxGeometry x="320" y="560" width="400" height="40" as="geometry"/>
                </mxCell>
                <mxCell id="114" value="&lt;b style=&quot;font-size: 18px;&quot;&gt;&lt;font style=&quot;font-size: 18px;&quot;&gt;Ventaneo de chunks para ampliación de contexto&lt;/font&gt;&lt;/b&gt;" style="text;html=1;align=center;verticalAlign=middle;resizable=0;points=[];autosize=1;strokeColor=none;fillColor=none;fontColor=#000000;fontSize=18;" vertex="1" parent="1">
                    <mxGeometry x="10" y="380" width="450" height="40" as="geometry"/>
                </mxCell>
                <mxCell id="146" value="&lt;span style=&quot;font-family: Consolas, &amp;quot;Courier New&amp;quot;, monospace; font-size: 14px; font-style: normal; font-variant-ligatures: normal; font-variant-caps: normal; font-weight: 400; letter-spacing: normal; orphans: 2; text-indent: 0px; text-transform: none; widows: 2; word-spacing: 0px; -webkit-text-stroke-width: 0px; text-decoration-thickness: initial; text-decoration-style: initial; text-decoration-color: initial; float: none; display: inline !important;&quot;&gt;Verdaderamente el tercer entregable es una actividad relativamente guiada con esto,&lt;/span&gt;" style="text;whiteSpace=wrap;html=1;align=left;verticalAlign=middle;strokeColor=#000000;fontColor=default;fillColor=none;" vertex="1" parent="1">
                    <mxGeometry x="320" y="440" width="400" height="40" as="geometry"/>
                </mxCell>
                <mxCell id="147" value="&lt;span style=&quot;font-family: Consolas, &amp;quot;Courier New&amp;quot;, monospace; font-size: 14px; font-style: normal; font-variant-ligatures: normal; font-variant-caps: normal; font-weight: 400; letter-spacing: normal; orphans: 2; text-align: start; text-indent: 0px; text-transform: none; widows: 2; word-spacing: 0px; -webkit-text-stroke-width: 0px; text-decoration-thickness: initial; text-decoration-style: initial; text-decoration-color: initial; float: none; display: inline !important;&quot;&gt;que es lo que vamos a buscar, ver ese impacto que tenemos sobre las redes recurrentes en la&lt;/span&gt;" style="text;whiteSpace=wrap;html=1;verticalAlign=middle;strokeColor=#000000;fontColor=default;fillColor=none;" vertex="1" parent="1">
                    <mxGeometry x="320" y="480" width="400" height="40" as="geometry"/>
                </mxCell>
                <mxCell id="148" value="&lt;span style=&quot;font-family: Consolas, &amp;quot;Courier New&amp;quot;, monospace; font-size: 14px; font-style: normal; font-variant-ligatures: normal; font-variant-caps: normal; font-weight: 400; letter-spacing: normal; orphans: 2; text-indent: 0px; text-transform: none; widows: 2; word-spacing: 0px; -webkit-text-stroke-width: 0px; text-decoration-thickness: initial; text-decoration-style: initial; text-decoration-color: initial; float: none; display: inline !important;&quot;&gt;Verdaderamente el tercer entregable es una actividad relativamente guiada con esto,&lt;/span&gt;" style="text;whiteSpace=wrap;html=1;align=left;verticalAlign=middle;strokeColor=#000000;fontColor=#000000;fillColor=none;" vertex="1" parent="1">
                    <mxGeometry x="320" y="440" width="400" height="40" as="geometry"/>
                </mxCell>
                <mxCell id="149" value="&lt;span style=&quot;font-family: Consolas, &amp;quot;Courier New&amp;quot;, monospace; font-size: 14px; font-style: normal; font-variant-ligatures: normal; font-variant-caps: normal; font-weight: 400; letter-spacing: normal; orphans: 2; text-align: start; text-indent: 0px; text-transform: none; widows: 2; word-spacing: 0px; -webkit-text-stroke-width: 0px; text-decoration-thickness: initial; text-decoration-style: initial; text-decoration-color: initial; float: none; display: inline !important;&quot;&gt;que es lo que vamos a buscar, ver ese impacto que tenemos sobre las redes recurrentes en la&lt;/span&gt;" style="text;whiteSpace=wrap;html=1;verticalAlign=middle;strokeColor=#000000;fontColor=#000000;fillColor=none;" vertex="1" parent="1">
                    <mxGeometry x="320" y="480" width="400" height="40" as="geometry"/>
                </mxCell>
                <mxCell id="150" value="&lt;span style=&quot;font-family: Consolas, &amp;quot;Courier New&amp;quot;, monospace; font-size: 14px; font-style: normal; font-variant-ligatures: normal; font-variant-caps: normal; font-weight: 400; letter-spacing: normal; orphans: 2; text-align: start; text-indent: 0px; text-transform: none; widows: 2; word-spacing: 0px; -webkit-text-stroke-width: 0px; text-decoration-thickness: initial; text-decoration-style: initial; text-decoration-color: initial;&quot;&gt;predicción de una serie temporal. Los pasos que vamos a tener que ir haciendo, pues después de&lt;/span&gt;&lt;span style=&quot;font-family: Consolas, &amp;quot;Courier New&amp;quot;, monospace; font-size: 14px; font-style: normal; font-variant-ligatures: normal; font-variant-caps: normal; font-weight: 400; letter-spacing: normal; orphans: 2; text-align: start; text-indent: 0px; text-transform: none; widows: 2; word-spacing: 0px; -webkit-text-stroke-width: 0px; text-decoration-thickness: initial; text-decoration-style: initial; text-decoration-color: initial;&quot;&gt;&lt;br&gt;&lt;/span&gt;" style="text;whiteSpace=wrap;html=1;verticalAlign=middle;strokeColor=#000000;fontColor=#000000;fillColor=none;" vertex="1" parent="1">
                    <mxGeometry x="320" y="520" width="400" height="40" as="geometry"/>
                </mxCell>
                <mxCell id="154" value="&lt;span style=&quot;font-family: Consolas, &amp;quot;Courier New&amp;quot;, monospace; font-size: 14px; font-style: normal; font-variant-ligatures: normal; font-variant-caps: normal; font-weight: 400; letter-spacing: normal; orphans: 2; text-align: start; text-indent: 0px; text-transform: none; widows: 2; word-spacing: 0px; -webkit-text-stroke-width: 0px; text-decoration-thickness: initial; text-decoration-style: initial; text-decoration-color: initial; float: none; display: inline !important;&quot;&gt;La hora de trabajar con las series temporales, de hacer esa ventana de serie temporal. Esto no es&lt;/span&gt;" style="text;whiteSpace=wrap;html=1;verticalAlign=middle;strokeColor=#000000;fontColor=#000000;fillColor=none;" vertex="1" parent="1">
                    <mxGeometry x="320" y="720" width="400" height="40" as="geometry"/>
                </mxCell>
                <mxCell id="157" value="&lt;span style=&quot;font-family: Consolas, &amp;quot;Courier New&amp;quot;, monospace; font-size: 14px; font-style: normal; font-variant-ligatures: normal; font-variant-caps: normal; font-weight: 400; letter-spacing: normal; orphans: 2; text-align: left; text-indent: 0px; text-transform: none; widows: 2; word-spacing: 0px; -webkit-text-stroke-width: 0px; text-decoration-thickness: initial; text-decoration-style: initial; text-decoration-color: initial; float: none; display: inline !important;&quot;&gt;&lt;font color=&quot;#000000&quot;&gt;Inicio: 7.8&lt;br&gt;Fin: 14.8&lt;/font&gt;&lt;/span&gt;" style="text;whiteSpace=wrap;html=1;verticalAlign=middle;strokeColor=#000000;fontColor=default;fillColor=none;" vertex="1" parent="1">
                    <mxGeometry x="210" y="440" width="110" height="40" as="geometry"/>
                </mxCell>
                <mxCell id="158" value="&lt;span style=&quot;font-family: Consolas, &amp;quot;Courier New&amp;quot;, monospace; font-size: 14px; font-style: normal; font-variant-ligatures: normal; font-variant-caps: normal; font-weight: 400; letter-spacing: normal; orphans: 2; text-align: left; text-indent: 0px; text-transform: none; widows: 2; word-spacing: 0px; -webkit-text-stroke-width: 0px; text-decoration-thickness: initial; text-decoration-style: initial; text-decoration-color: initial; float: none; display: inline !important;&quot;&gt;&lt;font color=&quot;#000000&quot;&gt;Inicio: 7.8&lt;br&gt;Fin: 14.8&lt;/font&gt;&lt;/span&gt;" style="text;whiteSpace=wrap;html=1;verticalAlign=middle;strokeColor=#000000;fontColor=default;fillColor=none;" vertex="1" parent="1">
                    <mxGeometry x="210" y="440" width="110" height="40" as="geometry"/>
                </mxCell>
                <mxCell id="161" value="&lt;span style=&quot;font-family: Consolas, &amp;quot;Courier New&amp;quot;, monospace; font-size: 14px; font-style: normal; font-variant-ligatures: normal; font-variant-caps: normal; font-weight: 400; letter-spacing: normal; orphans: 2; text-align: start; text-indent: 0px; text-transform: none; widows: 2; word-spacing: 0px; -webkit-text-stroke-width: 0px; text-decoration-thickness: initial; text-decoration-style: initial; text-decoration-color: initial; float: none; display: inline !important;&quot;&gt;Inicio: 14.8&lt;br&gt;Fin: 20.96&lt;/span&gt;" style="text;whiteSpace=wrap;html=1;verticalAlign=middle;strokeColor=#000000;fontColor=#000000;fillColor=none;labelBackgroundColor=none;" vertex="1" parent="1">
                    <mxGeometry x="210" y="480" width="110" height="40" as="geometry"/>
                </mxCell>
                <mxCell id="162" value="&lt;span style=&quot;font-family: Consolas, &amp;quot;Courier New&amp;quot;, monospace; font-size: 14px; font-style: normal; font-variant-ligatures: normal; font-variant-caps: normal; font-weight: 400; letter-spacing: normal; orphans: 2; text-indent: 0px; text-transform: none; widows: 2; word-spacing: 0px; -webkit-text-stroke-width: 0px; text-decoration-thickness: initial; text-decoration-style: initial; text-decoration-color: initial; float: none; display: inline !important;&quot;&gt;Verdaderamente el tercer entregable es una actividad relativamente guiada con esto,&lt;/span&gt;" style="text;whiteSpace=wrap;html=1;align=left;verticalAlign=middle;strokeColor=#000000;fontColor=#000000;fillColor=none;" vertex="1" parent="1">
                    <mxGeometry x="320" y="440" width="400" height="40" as="geometry"/>
                </mxCell>
                <mxCell id="163" value="&lt;span style=&quot;font-family: Consolas, &amp;quot;Courier New&amp;quot;, monospace; font-size: 14px; font-style: normal; font-variant-ligatures: normal; font-variant-caps: normal; font-weight: 400; letter-spacing: normal; orphans: 2; text-align: start; text-indent: 0px; text-transform: none; widows: 2; word-spacing: 0px; -webkit-text-stroke-width: 0px; text-decoration-thickness: initial; text-decoration-style: initial; text-decoration-color: initial; float: none; display: inline !important;&quot;&gt;que es lo que vamos a buscar, ver ese impacto que tenemos sobre las redes recurrentes en la&lt;/span&gt;" style="text;whiteSpace=wrap;html=1;verticalAlign=middle;strokeColor=#000000;fontColor=#000000;fillColor=none;" vertex="1" parent="1">
                    <mxGeometry x="320" y="480" width="400" height="40" as="geometry"/>
                </mxCell>
                <mxCell id="164" value="&lt;span style=&quot;font-family: Consolas, &amp;quot;Courier New&amp;quot;, monospace; font-size: 14px; font-style: normal; font-variant-ligatures: normal; font-variant-caps: normal; font-weight: 400; letter-spacing: normal; orphans: 2; text-align: start; text-indent: 0px; text-transform: none; widows: 2; word-spacing: 0px; -webkit-text-stroke-width: 0px; text-decoration-thickness: initial; text-decoration-style: initial; text-decoration-color: initial;&quot;&gt;predicción de una serie temporal. Los pasos que vamos a tener que ir haciendo, pues después de&lt;/span&gt;&lt;span style=&quot;font-family: Consolas, &amp;quot;Courier New&amp;quot;, monospace; font-size: 14px; font-style: normal; font-variant-ligatures: normal; font-variant-caps: normal; font-weight: 400; letter-spacing: normal; orphans: 2; text-align: start; text-indent: 0px; text-transform: none; widows: 2; word-spacing: 0px; -webkit-text-stroke-width: 0px; text-decoration-thickness: initial; text-decoration-style: initial; text-decoration-color: initial;&quot;&gt;&lt;br&gt;&lt;/span&gt;" style="text;whiteSpace=wrap;html=1;verticalAlign=middle;strokeColor=#000000;fontColor=#000000;fillColor=none;" vertex="1" parent="1">
                    <mxGeometry x="320" y="520" width="400" height="40" as="geometry"/>
                </mxCell>
                <mxCell id="165" value="&lt;span style=&quot;font-family: Consolas, &amp;quot;Courier New&amp;quot;, monospace; font-size: 14px; font-style: normal; font-variant-ligatures: normal; font-variant-caps: normal; font-weight: 400; letter-spacing: normal; orphans: 2; text-align: start; text-indent: 0px; text-transform: none; widows: 2; word-spacing: 0px; -webkit-text-stroke-width: 0px; text-decoration-thickness: initial; text-decoration-style: initial; text-decoration-color: initial; float: none; display: inline !important;&quot;&gt;&lt;font color=&quot;#000000&quot;&gt;tener importado nuestra información, nuestros datos y demás, nos vamos a ir valiendo un poco&lt;/font&gt;&lt;/span&gt;" style="text;whiteSpace=wrap;html=1;verticalAlign=middle;strokeColor=#000000;fontColor=default;fillColor=none;" vertex="1" parent="1">
                    <mxGeometry x="320" y="560" width="400" height="40" as="geometry"/>
                </mxCell>
                <mxCell id="166" value="&lt;span style=&quot;font-family: Consolas, &amp;quot;Courier New&amp;quot;, monospace; font-size: 14px; font-style: normal; font-variant-ligatures: normal; font-variant-caps: normal; font-weight: 400; letter-spacing: normal; orphans: 2; text-align: start; text-indent: 0px; text-transform: none; widows: 2; word-spacing: 0px; -webkit-text-stroke-width: 0px; text-decoration-thickness: initial; text-decoration-style: initial; text-decoration-color: initial; float: none; display: inline !important;&quot;&gt;&lt;font color=&quot;#000000&quot;&gt;pues de lo que tenemos que ir haciendo. En este caso de generar una serie de variables donde&lt;/font&gt;&lt;/span&gt;" style="text;whiteSpace=wrap;html=1;verticalAlign=middle;strokeColor=#000000;fontColor=default;fillColor=none;" vertex="1" parent="1">
                    <mxGeometry x="320" y="600" width="400" height="40" as="geometry"/>
                </mxCell>
                <mxCell id="168" value="&lt;span style=&quot;font-family: Consolas, &amp;quot;Courier New&amp;quot;, monospace; font-size: 14px; font-style: normal; font-variant-ligatures: normal; font-variant-caps: normal; font-weight: 400; letter-spacing: normal; orphans: 2; text-align: start; text-indent: 0px; text-transform: none; widows: 2; word-spacing: 0px; -webkit-text-stroke-width: 0px; text-decoration-thickness: initial; text-decoration-style: initial; text-decoration-color: initial; float: none; display: inline !important;&quot;&gt;Inicio: 43.08 Fin: 50.04&lt;/span&gt;" style="text;whiteSpace=wrap;html=1;strokeColor=#000000;fontColor=#000000;fillColor=none;verticalAlign=middle;" vertex="1" parent="1">
                    <mxGeometry x="210" y="640" width="110" height="40" as="geometry"/>
                </mxCell>
                <mxCell id="169" value="&lt;span style=&quot;font-family: Consolas, &amp;quot;Courier New&amp;quot;, monospace; font-size: 14px; font-style: normal; font-variant-ligatures: normal; font-variant-caps: normal; font-weight: 400; letter-spacing: normal; orphans: 2; text-align: start; text-indent: 0px; text-transform: none; widows: 2; word-spacing: 0px; -webkit-text-stroke-width: 0px; text-decoration-thickness: initial; text-decoration-style: initial; text-decoration-color: initial; float: none; display: inline !important;&quot;&gt;Inicio: 50.04&lt;br&gt;Fin: 55.56&lt;/span&gt;" style="text;whiteSpace=wrap;html=1;strokeColor=#000000;fontColor=#000000;fillColor=none;labelBackgroundColor=none;verticalAlign=middle;" vertex="1" parent="1">
                    <mxGeometry x="210" y="680" width="110" height="40" as="geometry"/>
                </mxCell>
                <mxCell id="170" value="&lt;span style=&quot;font-family: Consolas, &amp;quot;Courier New&amp;quot;, monospace; font-size: 14px; font-style: normal; font-variant-ligatures: normal; font-variant-caps: normal; font-weight: 400; letter-spacing: normal; orphans: 2; text-align: start; text-indent: 0px; text-transform: none; widows: 2; word-spacing: 0px; -webkit-text-stroke-width: 0px; text-decoration-thickness: initial; text-decoration-style: initial; text-decoration-color: initial; float: none; display: inline !important;&quot;&gt;La hora de trabajar con las series temporales, de hacer esa ventana de serie temporal. Esto no es&lt;/span&gt;" style="text;whiteSpace=wrap;html=1;verticalAlign=middle;strokeColor=#000000;fontColor=#000000;fillColor=none;" vertex="1" parent="1">
                    <mxGeometry x="320" y="720" width="400" height="40" as="geometry"/>
                </mxCell>
                <mxCell id="171" value="&lt;span style=&quot;font-family: Consolas, &amp;quot;Courier New&amp;quot;, monospace; font-size: 14px; font-style: normal; font-variant-ligatures: normal; font-variant-caps: normal; font-weight: 400; letter-spacing: normal; orphans: 2; text-align: start; text-indent: 0px; text-transform: none; widows: 2; word-spacing: 0px; -webkit-text-stroke-width: 0px; text-decoration-thickness: initial; text-decoration-style: initial; text-decoration-color: initial; float: none; display: inline !important;&quot;&gt;Inicio: 64.36&lt;br&gt;Fin: 70.08&lt;/span&gt;" style="text;whiteSpace=wrap;html=1;verticalAlign=middle;strokeColor=#000000;fontColor=#000000;fillColor=none;labelBackgroundColor=none;" vertex="1" parent="1">
                    <mxGeometry x="210" y="760" width="110" height="40" as="geometry"/>
                </mxCell>
                <mxCell id="172" value="Query" style="text;html=1;strokeColor=none;fillColor=none;align=center;verticalAlign=middle;whiteSpace=wrap;rounded=0;labelBackgroundColor=none;fontSize=18;fontColor=#000000;fontStyle=1" vertex="1" parent="1">
                    <mxGeometry x="-70" y="460" width="60" height="30" as="geometry"/>
                </mxCell>
                <mxCell id="173" value="¿Qué datos debo tener para entrear un modelo?" style="text;html=1;strokeColor=none;fillColor=none;align=center;verticalAlign=middle;whiteSpace=wrap;rounded=0;labelBackgroundColor=none;fontSize=18;fontColor=#000000;" vertex="1" parent="1">
                    <mxGeometry x="-130" y="500" width="200" height="30" as="geometry"/>
                </mxCell>
                <mxCell id="174" value="Mejor coincidencia" style="text;html=1;strokeColor=none;fillColor=none;align=center;verticalAlign=middle;whiteSpace=wrap;rounded=0;labelBackgroundColor=none;fontSize=18;fontColor=#000000;fontStyle=1" vertex="1" parent="1">
                    <mxGeometry x="-125" y="570" width="170" height="30" as="geometry"/>
                </mxCell>
                <mxCell id="175" value="Chunk 6" style="text;html=1;strokeColor=none;fillColor=none;align=center;verticalAlign=middle;whiteSpace=wrap;rounded=0;labelBackgroundColor=none;fontSize=18;fontColor=#000000;" vertex="1" parent="1">
                    <mxGeometry x="-140" y="600" width="200" height="30" as="geometry"/>
                </mxCell>
                <mxCell id="176" value="" style="triangle;whiteSpace=wrap;html=1;labelBackgroundColor=none;strokeColor=#82b366;fontSize=18;fillColor=#d5e8d4;gradientColor=#97d077;" vertex="1" parent="1">
                    <mxGeometry x="120" y="650" width="30" height="20" as="geometry"/>
                </mxCell>
                <mxCell id="177" value="Ventana de contexto" style="text;html=1;strokeColor=none;fillColor=none;align=center;verticalAlign=middle;whiteSpace=wrap;rounded=0;labelBackgroundColor=none;fontSize=18;fontColor=#000000;fontStyle=1" vertex="1" parent="1">
                    <mxGeometry x="-130" y="661" width="180" height="30" as="geometry"/>
                </mxCell>
                <mxCell id="178" value="10 segundos" style="text;html=1;strokeColor=none;fillColor=none;align=center;verticalAlign=middle;whiteSpace=wrap;rounded=0;labelBackgroundColor=none;fontSize=18;fontColor=#000000;" vertex="1" parent="1">
                    <mxGeometry x="-140" y="690" width="200" height="30" as="geometry"/>
                </mxCell>
                <mxCell id="182" value="" style="triangle;whiteSpace=wrap;html=1;labelBackgroundColor=none;strokeColor=#3700CC;fontSize=18;fillColor=#6a00ff;fontColor=#ffffff;" vertex="1" parent="1">
                    <mxGeometry x="120" y="610" width="30" height="20" as="geometry"/>
                </mxCell>
                <mxCell id="183" value="" style="triangle;whiteSpace=wrap;html=1;labelBackgroundColor=none;strokeColor=#3700CC;fontSize=18;fillColor=#6a00ff;fontColor=#ffffff;" vertex="1" parent="1">
                    <mxGeometry x="120" y="690" width="30" height="20" as="geometry"/>
                </mxCell>
                <mxCell id="184" value="Ventana ampliada" style="text;html=1;strokeColor=none;fillColor=none;align=center;verticalAlign=middle;whiteSpace=wrap;rounded=0;labelBackgroundColor=none;fontSize=18;fontColor=#000000;fontStyle=1" vertex="1" parent="1">
                    <mxGeometry x="-125" y="755" width="170" height="30" as="geometry"/>
                </mxCell>
                <mxCell id="185" value="Chunk 5 + 6 + 7" style="text;html=1;strokeColor=none;fillColor=none;align=center;verticalAlign=middle;whiteSpace=wrap;rounded=0;labelBackgroundColor=none;fontSize=18;fontColor=#000000;" vertex="1" parent="1">
                    <mxGeometry x="-140" y="785" width="200" height="30" as="geometry"/>
                </mxCell>
                <mxCell id="186" value="" style="group" vertex="1" connectable="0" parent="1">
                    <mxGeometry x="-106" y="697" width="10" height="18" as="geometry"/>
                </mxCell>
                <mxCell id="179" value="" style="shape=cross;whiteSpace=wrap;html=1;labelBackgroundColor=none;fontSize=18;strokeColor=#000000;" vertex="1" parent="186">
                    <mxGeometry width="10" height="10" as="geometry"/>
                </mxCell>
                <mxCell id="181" value="" style="line;strokeWidth=2;html=1;labelBackgroundColor=none;fontSize=18;strokeColor=#000000;" vertex="1" parent="186">
                    <mxGeometry y="8" width="10" height="10" as="geometry"/>
                </mxCell>
                <mxCell id="189" value="" style="triangle;whiteSpace=wrap;html=1;labelBackgroundColor=none;strokeColor=#82b366;fontSize=18;fillColor=#d5e8d4;gradientColor=#97d077;" vertex="1" parent="1">
                    <mxGeometry x="-150" y="605" width="30" height="20" as="geometry"/>
                </mxCell>
                <mxCell id="190" value="" style="triangle;whiteSpace=wrap;html=1;labelBackgroundColor=none;strokeColor=#3700CC;fontSize=18;fillColor=#6a00ff;fontColor=#ffffff;" vertex="1" parent="1">
                    <mxGeometry x="-150" y="790" width="30" height="20" as="geometry"/>
                </mxCell>
            </root>
        </mxGraphModel>
    </diagram>
</mxfile>